<?xml version="1.0" encoding="UTF-8"?>
<svg width="32px" height="20px" viewBox="0 0 32 20" version="1.1" xmlns="http://www.w3.org/2000/svg" xmlns:xlink="http://www.w3.org/1999/xlink">
    <!-- Generator: Sketch 61.1 (89650) - https://sketch.com -->
    <title>behance-2</title>
    <desc>Created with Sketch.</desc>
    <g id="Symbols" stroke="none" stroke-width="1" fill="none" fill-rule="evenodd">
        <g id="SOCIAL" fill="#2D2D2D" fill-rule="nonzero">
            <g id="Social">
                <g id="behance-2" transform="translate(0.000000, 0.000000)">
                    <path d="M13.1229907,9.07283489 C13.7849221,8.73987539 14.2853583,8.36903427 14.6282866,7.9682866 C15.2383801,7.24654206 15.5394393,6.28953271 15.5394393,5.10323988 C15.5394393,3.94884735 15.2383801,2.96193146 14.6362617,2.13451713 C13.6314019,0.786728972 11.9307165,0.0968847352 9.52623053,0.0609968847 L0,0.0609968847 L0,19.5062305 L8.88224299,19.5062305 C9.88311526,19.5062305 10.8102181,19.4204984 11.6675389,19.2450467 C12.5248598,19.0676012 13.2665421,18.7426168 13.8945794,18.2680997 C14.4528349,17.8553894 14.9193769,17.3429907 15.2902181,16.7388785 C15.8763863,15.8257321 16.1694704,14.7909657 16.1694704,13.638567 C16.1694704,12.5220561 15.9122741,11.571028 15.4018692,10.7894704 C14.8854829,10.0079128 14.1278505,9.43570093 13.1229907,9.07283489 Z M3.92971963,3.43844237 L8.22031153,3.43844237 C9.16336449,3.43844237 9.94093458,3.54012461 10.551028,3.74149533 C11.2568224,4.03457944 11.6097196,4.63071651 11.6097196,5.53987539 C11.6097196,6.3553271 11.3405607,6.92554517 10.8082243,7.24654206 C10.2719003,7.56753894 9.57607477,7.72903427 8.72274143,7.72903427 L3.92971963,7.72903427 L3.92971963,3.43844237 Z M10.7145171,15.7898442 C10.24,16.0191277 9.57208723,16.1327726 8.71676012,16.1327726 L3.92971963,16.1327726 L3.92971963,10.9469782 L8.78255452,10.9469782 C9.62791277,10.9529595 10.2858567,11.0646106 10.7563863,11.2739564 C11.5937695,11.6527726 12.0104673,12.3466044 12.0104673,13.361433 C12.0104673,14.5576947 11.5798131,15.3631776 10.7145171,15.7898442 Z" id="Shape"></path>
                    <rect id="Rectangle" x="20.3842991" y="0.968161994" width="8.44760125" height="2.42043614"></rect>
                    <path d="M31.766729,10.5203115 C31.5912773,9.39383178 31.204486,8.40292835 30.6023676,7.54760125 C29.9424299,6.57862928 29.1050467,5.86884735 28.0862305,5.42024922 C27.0714019,4.96965732 25.928972,4.74436137 24.656947,4.74634202 C22.5216199,4.74634202 20.7870405,5.41426791 19.4452336,6.74012461 C18.1074143,8.06996885 17.4375078,9.98199377 17.4375078,12.4742056 C17.4375078,15.1319003 18.1771963,17.0519003 19.6645483,18.2302181 C21.145919,19.4105296 22.8565732,19.9986916 24.7985047,19.9986916 C27.1491589,19.9986916 28.9774455,19.2988785 30.2833645,17.9032399 C31.1187539,17.0219938 31.5912773,16.154704 31.6949533,15.3033645 L27.8031153,15.3033645 C27.5778193,15.7240498 27.3166355,16.0530218 27.0175701,16.2922741 C26.4752648,16.7309034 25.7694704,16.9502181 24.9041745,16.9502181 C24.0807477,16.9502181 23.3829283,16.768785 22.8007477,16.4079128 C21.8397508,15.8297196 21.3373209,14.8168847 21.2735202,13.3753894 L31.8943302,13.3753894 C31.9102804,12.133271 31.870405,11.1782555 31.766729,10.5203115 Z M21.3692212,10.8931464 C21.508785,9.95806854 21.8477259,9.21638629 22.3860436,8.66809969 C22.9243614,8.12180685 23.6859813,7.84666667 24.6609346,7.8446729 C25.5601246,7.8446729 26.3117757,8.10186916 26.9238629,8.61825545 C27.5279751,9.13862928 27.8689097,9.89426791 27.9386916,10.8931464 L21.3692212,10.8931464 Z" id="Shape"></path>
                </g>
            </g>
        </g>
    </g>
</svg>