<?xml version="1.0" encoding="UTF-8"?>
<svg width="20px" height="20px" viewBox="0 0 20 20" version="1.1" xmlns="http://www.w3.org/2000/svg" xmlns:xlink="http://www.w3.org/1999/xlink">
    <!-- Generator: Sketch 61.1 (89650) - https://sketch.com -->
    <title>dribbble-2</title>
    <desc>Created with Sketch.</desc>
    <g id="Symbols" stroke="none" stroke-width="1" fill="none" fill-rule="evenodd">
        <g id="SOCIAL" transform="translate(-92.000000, 0.000000)" fill="#2D2D2D" fill-rule="nonzero">
            <g id="Social">
                <g id="dribbble-2" transform="translate(92.000000, 0.000000)">
                    <path d="M10,0 C4.48625,0 0,4.48625 0,10 C0,15.51375 4.48625,20 10,20 C15.51375,20 20,15.51375 20,10 C20,4.48625 15.51375,0 10,0 Z M10,18.75 C5.175,18.75 1.25,14.82375 1.25,10 C1.25,5.175 5.175,1.25 10,1.25 C14.82375,1.25 18.75,5.175 18.75,10 C18.75,14.82375 14.82375,18.75 10,18.75 Z" id="Shape"></path>
                    <path d="M10,2.5 C9.475,2.5 8.9625,2.555 8.4675,2.6575 C9.3775,3.9475 10.20375,5.29 10.93125,6.68125 C12.3075,6.04 13.6025,5.2125 14.785,4.225 C13.48625,3.1475 11.81875,2.5 10,2.5 Z" id="Path"></path>
                    <path d="M15.67625,5.1075 C14.39,6.19125 12.975,7.09 11.4725,7.7925 C11.80125,8.4775 12.10625,9.17125 12.38875,9.87625 C14.04875,9.535 15.77625,9.50375 17.48875,9.7875 C17.43875,8 16.76625,6.37 15.67625,5.1075 Z" id="Path"></path>
                    <path d="M7.2125,3.04125 C4.96125,3.94375 3.25375,5.90375 2.69875,8.31 C5.12625,8.41375 7.52875,8.00875 9.765,7.155 C9.01375,5.72875 8.1625,4.35375 7.2125,3.04125 Z" id="Path"></path>
                    <path d="M10.325,8.28625 C8.16,9.13 5.8475,9.59 3.49625,9.59 C3.1725,9.59 2.8475,9.57 2.5225,9.5525 C2.51375,9.70125 2.5,9.84875 2.5,10 C2.5,11.84125 3.16625,13.52625 4.2675,14.83125 C6.06875,12.595 8.49,10.9925 11.17,10.1875 C10.90875,9.545 10.62625,8.9125 10.325,8.28625 Z" id="Path"></path>
                    <path d="M12.8475,11.06 C13.44375,12.7225 13.91125,14.43125 14.25375,16.17375 C15.94375,15.0075 17.12375,13.16625 17.42,11.03875 C15.8875,10.7675 14.33875,10.78 12.8475,11.06 Z" id="Path"></path>
                    <path d="M11.62,11.35 C9.1,12.08625 6.82375,13.59875 5.155,15.72 C6.4625,16.82875 8.15125,17.5 10,17.5 C11.11,17.5 12.16125,17.2525 13.10875,16.81875 C12.765,14.95125 12.265,13.12375 11.62,11.35 Z" id="Path"></path>
                </g>
            </g>
        </g>
    </g>
</svg>