<?xml version="1.0" encoding="UTF-8"?>
<svg width="20px" height="20px" viewBox="0 0 20 20" version="1.1" xmlns="http://www.w3.org/2000/svg" xmlns:xlink="http://www.w3.org/1999/xlink">
    <!-- Generator: Sketch 61.1 (89650) - https://sketch.com -->
    <title>linkedin-2</title>
    <desc>Created with Sketch.</desc>
    <g id="Symbols" stroke="none" stroke-width="1" fill="none" fill-rule="evenodd">
        <g id="SOCIAL" transform="translate(-52.000000, 0.000000)" fill="#2D2D2D" fill-rule="nonzero">
            <g id="Social">
                <g id="linkedin-2" transform="translate(52.000000, 0.000000)">
                    <rect id="Rectangle" x="0" y="6.25" width="4.4725" height="13.75"></rect>
                    <path d="M16.655,6.41125 C16.6075,6.39625 16.5625,6.38 16.5125,6.36625 C16.4525,6.3525 16.3925,6.34125 16.33125,6.33125 C16.09375,6.28375 15.83375,6.25 15.52875,6.25 C12.92125,6.25 11.2675,8.14625 10.7225,8.87875 L10.7225,6.25 L6.25,6.25 L6.25,20 L10.7225,20 L10.7225,12.5 C10.7225,12.5 14.1025,7.7925 15.52875,11.25 C15.52875,14.33625 15.52875,20 15.52875,20 L20,20 L20,10.72125 C20,8.64375 18.57625,6.9125 16.655,6.41125 Z" id="Path"></path>
                    <circle id="Oval" cx="2.1875" cy="2.1875" r="2.1875"></circle>
                </g>
            </g>
        </g>
    </g>
</svg>